<?xml version="1.0" standalone="no"?>
<!DOCTYPE svg PUBLIC "-//W3C//DTD SVG 20010904//EN"
 "http://www.w3.org/TR/2001/REC-SVG-20010904/DTD/svg10.dtd">
<svg version="1.0" xmlns="http://www.w3.org/2000/svg"
 width="945.000000pt" height="945.000000pt" viewBox="0 0 945.000000 945.000000"
 preserveAspectRatio="xMidYMid meet">
<metadata>
Created by potrace 1.11, written by Peter Selinger 2001-2013
</metadata>
<g transform="translate(0.000000,945.000000) scale(0.100000,-0.100000)"
fill="#000000" stroke="none">
<path d="M4465 8940 c-809 -51 -1599 -338 -2240 -815 -407 -302 -783 -701
-1047 -1110 -294 -458 -486 -932 -597 -1480 -101 -501 -103 -1115 -5 -1605 99
-495 262 -930 502 -1340 267 -456 648 -891 1054 -1203 443 -339 882 -567 1373
-712 226 -67 488 -124 660 -145 50 -6 104 -13 120 -15 17 -3 124 -10 238 -16
190 -11 523 -2 652 16 17 2 73 9 125 15 304 37 759 161 1070 293 758 320 1427
875 1882 1561 355 535 591 1165 668 1781 34 275 44 526 31 760 -6 116 -13 224
-16 240 -2 17 -9 73 -15 125 -15 119 -51 305 -95 480 -186 739 -594 1441
-1151 1980 -457 442 -968 758 -1564 967 -317 111 -711 194 -1040 217 -151 11
-478 14 -605 6z m-471 -1780 c277 -71 414 -289 452 -722 l6 -78 55 88 c258
415 489 620 788 699 93 25 114 27 315 27 186 0 229 -3 320 -23 322 -69 637
-229 765 -389 88 -110 125 -214 125 -352 0 -163 -46 -276 -160 -391 -59 -60
-94 -85 -164 -120 -89 -44 -90 -44 -195 -43 -99 0 -118 4 -276 53 -317 98
-500 130 -659 116 -414 -36 -644 -305 -770 -900 -78 -375 -96 -681 -106 -1870
-7 -896 -8 -911 -29 -989 -90 -323 -322 -506 -641 -506 -188 0 -330 58 -457
186 -83 83 -138 186 -175 324 l-23 85 -3 2045 c-3 2257 -5 2162 59 2355 41
121 80 187 158 266 112 112 234 157 432 158 75 1 128 -5 183 -19z"/>
</g>
</svg>
